<svg xmlns="http://www.w3.org/2000/svg" viewBox="0 0 960 600" width="960" height="600">
  <rect x="0" y="0" width="960" height="600" fill="#FFFFFF"/>
  <text x="480" y="55" text-anchor="middle" font-family="sans-serif" font-size="30" font-weight="bold" fill="#003A93">購屋前家庭財務健檢五個檢查重點</text>
  <line x1="80" y1="80" x2="880" y2="80" stroke="#3D6BB5" stroke-width="2"/>

  <rect x="80" y="105" width="800" height="88" rx="10" fill="#F4F4F4"/>
  <circle cx="140" cy="149" r="30" fill="#003A93"/>
  <circle cx="140" cy="149" r="12" fill="none" stroke="#FFFFFF" stroke-width="4"/>
  <line x1="128" y1="149" x2="152" y2="149" stroke="#FFFFFF" stroke-width="4"/>
  <line x1="140" y1="137" x2="140" y2="149" stroke="#FFFFFF" stroke-width="4"/>
  <text x="190" y="141" font-family="sans-serif" font-size="24" font-weight="bold" fill="#1F1F1F">退休金缺口檢視</text>
  <text x="190" y="169" font-family="sans-serif" font-size="16" fill="#6B7280">支援子女前，先確認自己退休準備是否足夠</text>

  <rect x="80" y="203" width="800" height="88" rx="10" fill="#F4F4F4"/>
  <circle cx="140" cy="247" r="30" fill="#3D6BB5"/>
  <rect x="126" y="240" width="28" height="18" rx="4" fill="#FFFFFF"/>
  <circle cx="152" cy="238" r="5" fill="#FFFFFF"/>
  <line x1="130" y1="249" x2="136" y2="249" stroke="#3D6BB5" stroke-width="2"/>
  <text x="190" y="239" font-family="sans-serif" font-size="24" font-weight="bold" fill="#1F1F1F">6 個月緊急預備金</text>
  <text x="190" y="267" font-family="sans-serif" font-size="16" fill="#6B7280">保留至少半年生活費，再考慮動用資金</text>

  <rect x="80" y="301" width="800" height="88" rx="10" fill="#F4F4F4"/>
  <circle cx="140" cy="345" r="30" fill="#D1482A"/>
  <text x="140" y="354" text-anchor="middle" font-family="sans-serif" font-size="26" font-weight="bold" fill="#FFFFFF">%</text>
  <text x="190" y="337" font-family="sans-serif" font-size="24" font-weight="bold" fill="#1F1F1F">資助形式與上限</text>
  <text x="190" y="365" font-family="sans-serif" font-size="16" fill="#6B7280">預先設定金額上限，明確是贈與或借貸</text>

  <rect x="80" y="399" width="800" height="88" rx="10" fill="#F4F4F4"/>
  <circle cx="140" cy="443" r="30" fill="#003A93"/>
  <rect x="122" y="432" width="36" height="24" rx="3" fill="none" stroke="#FFFFFF" stroke-width="3"/>
  <path d="M122 434 L140 448 L158 434" fill="none" stroke="#FFFFFF" stroke-width="3"/>
  <text x="190" y="435" font-family="sans-serif" font-size="24" font-weight="bold" fill="#1F1F1F">贈與稅確認</text>
  <text x="190" y="463" font-family="sans-serif" font-size="16" fill="#6B7280">超過免稅額度前，先諮詢確認申報規定</text>

  <rect x="80" y="497" width="800" height="88" rx="10" fill="#F4F4F4"/>
  <circle cx="140" cy="541" r="30" fill="#3D6BB5"/>
  <path d="M122 528 h36 a6 6 0 0 1 6 6 v14 a6 6 0 0 1 -6 6 h-20 l-10 10 v-10 h-6 a6 6 0 0 1 -6 -6 v-14 a6 6 0 0 1 6 -6 z" fill="#FFFFFF"/>
  <text x="190" y="533" font-family="sans-serif" font-size="24" font-weight="bold" fill="#1F1F1F">與子女溝通清楚</text>
  <text x="190" y="561" font-family="sans-serif" font-size="16" fill="#6B7280">雙方對金額、還款與期待有共同認知</text>
<text x="940.8" y="585" text-anchor="end" font-family="sans-serif" font-size="17" fill="#6B7280" fill-opacity="0.45" font-weight="600">dreamer868.com</text></svg>